<svg width="173" height="400" viewBox="0 0 173 400" fill="none" xmlns="http://www.w3.org/2000/svg">
<g opacity="0.5">
<rect y="207" width="2.83607" height="2.84073" fill="black"/>
<rect x="18.9066" y="207" width="2.83607" height="2.84073" fill="black"/>
<rect x="37.8143" y="207" width="2.83607" height="2.84073" fill="black"/>
<rect x="56.7217" y="207" width="2.83607" height="2.84073" fill="black"/>
<rect x="75.6284" y="207" width="2.83607" height="2.84073" fill="black"/>
<rect x="94.5361" y="207" width="2.83607" height="2.84073" fill="black"/>
<rect x="113.443" y="207" width="2.83607" height="2.84073" fill="black"/>
<rect x="132.351" y="207" width="2.83607" height="2.84073" fill="black"/>
<rect x="151.258" y="207" width="2.83607" height="2.84073" fill="black"/>
<rect x="170.164" y="207" width="2.83607" height="2.84073" fill="black"/>
<rect y="225.938" width="2.83607" height="2.84073" fill="black"/>
<rect x="18.9066" y="225.938" width="2.83607" height="2.84073" fill="black"/>
<rect x="37.8143" y="225.938" width="2.83607" height="2.84073" fill="black"/>
<rect x="56.7217" y="225.938" width="2.83607" height="2.84073" fill="black"/>
<rect x="75.6284" y="225.938" width="2.83607" height="2.84073" fill="black"/>
<rect x="94.5361" y="225.938" width="2.83607" height="2.84073" fill="black"/>
<rect x="113.443" y="225.938" width="2.83607" height="2.84073" fill="black"/>
<rect x="132.351" y="225.938" width="2.83607" height="2.84073" fill="black"/>
<rect x="151.258" y="225.938" width="2.83607" height="2.84073" fill="black"/>
<rect x="170.164" y="225.938" width="2.83607" height="2.84073" fill="black"/>
<rect y="244.876" width="2.83607" height="2.84073" fill="black"/>
<rect x="18.9066" y="244.876" width="2.83607" height="2.84073" fill="black"/>
<rect x="37.8143" y="244.876" width="2.83607" height="2.84073" fill="black"/>
<rect x="56.7217" y="244.876" width="2.83607" height="2.84073" fill="black"/>
<rect x="75.6284" y="244.876" width="2.83607" height="2.84073" fill="black"/>
<rect x="94.5361" y="244.876" width="2.83607" height="2.84073" fill="black"/>
<rect x="113.443" y="244.876" width="2.83607" height="2.84073" fill="black"/>
<rect x="132.351" y="244.876" width="2.83607" height="2.84073" fill="black"/>
<rect x="151.258" y="244.876" width="2.83607" height="2.84073" fill="black"/>
<rect x="170.164" y="244.876" width="2.83607" height="2.84073" fill="black"/>
<rect y="263.815" width="2.83607" height="2.84073" fill="black"/>
<rect x="18.9066" y="263.815" width="2.83607" height="2.84073" fill="black"/>
<rect x="37.8143" y="263.815" width="2.83607" height="2.84073" fill="black"/>
<rect x="56.7217" y="263.815" width="2.83607" height="2.84073" fill="black"/>
<rect x="75.6284" y="263.815" width="2.83607" height="2.84073" fill="black"/>
<rect x="94.5361" y="263.815" width="2.83607" height="2.84073" fill="black"/>
<rect x="113.443" y="263.815" width="2.83607" height="2.84073" fill="black"/>
<rect x="132.351" y="263.815" width="2.83607" height="2.84073" fill="black"/>
<rect x="151.258" y="263.815" width="2.83607" height="2.84073" fill="black"/>
<rect x="170.164" y="263.815" width="2.83607" height="2.84073" fill="black"/>
<rect y="282.753" width="2.83607" height="2.84073" fill="black"/>
<rect x="18.9066" y="282.753" width="2.83607" height="2.84073" fill="black"/>
<rect x="37.8143" y="282.753" width="2.83607" height="2.84073" fill="black"/>
<rect x="56.7217" y="282.753" width="2.83607" height="2.84073" fill="black"/>
<rect x="75.6284" y="282.753" width="2.83607" height="2.84073" fill="black"/>
<rect x="94.5361" y="282.753" width="2.83607" height="2.84073" fill="black"/>
<rect x="113.443" y="282.753" width="2.83607" height="2.84073" fill="black"/>
<rect x="132.351" y="282.753" width="2.83607" height="2.84073" fill="black"/>
<rect x="151.258" y="282.753" width="2.83607" height="2.84073" fill="black"/>
<rect x="170.164" y="282.753" width="2.83607" height="2.84073" fill="black"/>
<rect y="301.691" width="2.83607" height="2.84073" fill="black"/>
<rect x="18.9066" y="301.691" width="2.83607" height="2.84073" fill="black"/>
<rect x="37.8143" y="301.691" width="2.83607" height="2.84073" fill="black"/>
<rect x="56.7217" y="301.691" width="2.83607" height="2.84073" fill="black"/>
<rect x="75.6284" y="301.691" width="2.83607" height="2.84073" fill="black"/>
<rect x="94.5361" y="301.691" width="2.83607" height="2.84073" fill="black"/>
<rect x="113.443" y="301.691" width="2.83607" height="2.84073" fill="black"/>
<rect x="132.351" y="301.691" width="2.83607" height="2.84073" fill="black"/>
<rect x="151.258" y="301.691" width="2.83607" height="2.84073" fill="black"/>
<rect x="170.164" y="301.691" width="2.83607" height="2.84073" fill="black"/>
<rect y="320.629" width="2.83607" height="2.84073" fill="black"/>
<rect x="18.9066" y="320.629" width="2.83607" height="2.84073" fill="black"/>
<rect x="37.8143" y="320.629" width="2.83607" height="2.84073" fill="black"/>
<rect x="56.7217" y="320.629" width="2.83607" height="2.84073" fill="black"/>
<rect x="75.6284" y="320.629" width="2.83607" height="2.84073" fill="black"/>
<rect x="94.5361" y="320.629" width="2.83607" height="2.84073" fill="black"/>
<rect x="113.443" y="320.629" width="2.83607" height="2.84073" fill="black"/>
<rect x="132.351" y="320.629" width="2.83607" height="2.84073" fill="black"/>
<rect x="151.258" y="320.629" width="2.83607" height="2.84073" fill="black"/>
<rect x="170.164" y="320.629" width="2.83607" height="2.84073" fill="black"/>
<rect y="339.567" width="2.83607" height="2.84073" fill="black"/>
<rect x="18.9066" y="339.568" width="2.83607" height="2.84073" fill="black"/>
<rect x="37.8143" y="339.568" width="2.83607" height="2.84073" fill="black"/>
<rect x="56.7217" y="339.568" width="2.83607" height="2.84073" fill="black"/>
<rect x="75.6284" y="339.568" width="2.83607" height="2.84073" fill="black"/>
<rect x="94.5361" y="339.568" width="2.83607" height="2.84073" fill="black"/>
<rect x="113.443" y="339.568" width="2.83607" height="2.84073" fill="black"/>
<rect x="132.351" y="339.568" width="2.83607" height="2.84073" fill="black"/>
<rect x="151.258" y="339.568" width="2.83607" height="2.84073" fill="black"/>
<rect x="170.164" y="339.568" width="2.83607" height="2.84073" fill="black"/>
<rect y="358.506" width="2.83607" height="2.84073" fill="black"/>
<rect x="18.9066" y="358.506" width="2.83607" height="2.84073" fill="black"/>
<rect x="37.8143" y="358.506" width="2.83607" height="2.84073" fill="black"/>
<rect x="56.7217" y="358.506" width="2.83607" height="2.84073" fill="black"/>
<rect x="75.6284" y="358.506" width="2.83607" height="2.84073" fill="black"/>
<rect x="94.5361" y="358.506" width="2.83607" height="2.84073" fill="black"/>
<rect x="113.443" y="358.506" width="2.83607" height="2.84073" fill="black"/>
<rect x="132.351" y="358.506" width="2.83607" height="2.84073" fill="black"/>
<rect x="151.258" y="358.506" width="2.83607" height="2.84073" fill="black"/>
<rect x="170.164" y="358.506" width="2.83607" height="2.84073" fill="black"/>
<rect y="377.443" width="2.83607" height="2.84073" fill="black"/>
<rect x="18.9066" y="377.443" width="2.83607" height="2.84073" fill="black"/>
<rect x="37.8143" y="377.443" width="2.83607" height="2.84073" fill="black"/>
<rect x="56.7217" y="377.443" width="2.83607" height="2.84073" fill="black"/>
<rect x="75.6284" y="377.443" width="2.83607" height="2.84073" fill="black"/>
<rect x="94.5361" y="377.443" width="2.83607" height="2.84073" fill="black"/>
<rect x="113.443" y="377.443" width="2.83607" height="2.84073" fill="black"/>
<rect x="132.351" y="377.443" width="2.83607" height="2.84073" fill="black"/>
<rect x="151.258" y="377.443" width="2.83607" height="2.84073" fill="black"/>
<rect x="170.164" y="377.443" width="2.83607" height="2.84073" fill="black"/>
<rect y="396.382" width="2.83607" height="2.84073" fill="black"/>
<rect x="18.9066" y="396.383" width="2.83607" height="2.84073" fill="black"/>
<rect x="37.8143" y="396.383" width="2.83607" height="2.84073" fill="black"/>
<rect x="56.7217" y="396.383" width="2.83607" height="2.84073" fill="black"/>
<rect x="75.6284" y="396.383" width="2.83607" height="2.84073" fill="black"/>
<rect x="94.5361" y="396.383" width="2.83607" height="2.84073" fill="black"/>
<rect x="113.443" y="396.383" width="2.83607" height="2.84073" fill="black"/>
<rect x="132.351" y="396.383" width="2.83607" height="2.84073" fill="black"/>
<rect x="151.258" y="396.383" width="2.83607" height="2.84073" fill="black"/>
<rect x="170.164" y="396.383" width="2.83607" height="2.84073" fill="black"/>
</g>
<g opacity="0.5">
<rect width="3" height="3" fill="black"/>
<rect x="19" width="3" height="3" fill="black"/>
<rect x="38" width="3" height="3" fill="black"/>
<rect x="57" width="3" height="3" fill="black"/>
<rect x="76" width="3" height="3" fill="black"/>
<rect x="95" width="3" height="3" fill="black"/>
<rect x="113" width="3" height="3" fill="black"/>
<rect x="132" width="3" height="3" fill="black"/>
<rect x="151" width="3" height="3" fill="black"/>
<rect x="170" width="3" height="3" fill="black"/>
<rect y="19" width="3" height="3" fill="black"/>
<rect x="19" y="19" width="3" height="3" fill="black"/>
<rect x="38" y="19" width="3" height="3" fill="black"/>
<rect x="57" y="19" width="3" height="3" fill="black"/>
<rect x="76" y="19" width="3" height="3" fill="black"/>
<rect x="95" y="19" width="3" height="3" fill="black"/>
<rect x="113" y="19" width="3" height="3" fill="black"/>
<rect x="132" y="19" width="3" height="3" fill="black"/>
<rect x="151" y="19" width="3" height="3" fill="black"/>
<rect x="170" y="19" width="3" height="3" fill="black"/>
<rect y="38" width="3" height="3" fill="black"/>
<rect x="19" y="38" width="3" height="3" fill="black"/>
<rect x="38" y="38" width="3" height="3" fill="black"/>
<rect x="57" y="38" width="3" height="3" fill="black"/>
<rect x="76" y="38" width="3" height="3" fill="black"/>
<rect x="95" y="38" width="3" height="3" fill="black"/>
<rect x="113" y="38" width="3" height="3" fill="black"/>
<rect x="132" y="38" width="3" height="3" fill="black"/>
<rect x="151" y="38" width="3" height="3" fill="black"/>
<rect x="170" y="38" width="3" height="3" fill="black"/>
<rect y="57" width="3" height="3" fill="black"/>
<rect x="19" y="57" width="3" height="3" fill="black"/>
<rect x="38" y="57" width="3" height="3" fill="black"/>
<rect x="57" y="57" width="3" height="3" fill="black"/>
<rect x="76" y="57" width="3" height="3" fill="black"/>
<rect x="95" y="57" width="3" height="3" fill="black"/>
<rect x="113" y="57" width="3" height="3" fill="black"/>
<rect x="132" y="57" width="3" height="3" fill="black"/>
<rect x="151" y="57" width="3" height="3" fill="black"/>
<rect x="170" y="57" width="3" height="3" fill="black"/>
<rect y="76" width="3" height="3" fill="black"/>
<rect x="19" y="76" width="3" height="3" fill="black"/>
<rect x="38" y="76" width="3" height="3" fill="black"/>
<rect x="57" y="76" width="3" height="3" fill="black"/>
<rect x="76" y="76" width="3" height="3" fill="black"/>
<rect x="95" y="76" width="3" height="3" fill="black"/>
<rect x="113" y="76" width="3" height="3" fill="black"/>
<rect x="132" y="76" width="3" height="3" fill="black"/>
<rect x="151" y="76" width="3" height="3" fill="black"/>
<rect x="170" y="76" width="3" height="3" fill="black"/>
<rect y="95" width="3" height="3" fill="black"/>
<rect x="19" y="95" width="3" height="3" fill="black"/>
<rect x="38" y="95" width="3" height="3" fill="black"/>
<rect x="57" y="95" width="3" height="3" fill="black"/>
<rect x="76" y="95" width="3" height="3" fill="black"/>
<rect x="95" y="95" width="3" height="3" fill="black"/>
<rect x="113" y="95" width="3" height="3" fill="black"/>
<rect x="132" y="95" width="3" height="3" fill="black"/>
<rect x="151" y="95" width="3" height="3" fill="black"/>
<rect x="170" y="95" width="3" height="3" fill="black"/>
<rect y="114" width="3" height="3" fill="black"/>
<rect x="19" y="114" width="3" height="3" fill="black"/>
<rect x="38" y="114" width="3" height="3" fill="black"/>
<rect x="57" y="114" width="3" height="3" fill="black"/>
<rect x="76" y="114" width="3" height="3" fill="black"/>
<rect x="95" y="114" width="3" height="3" fill="black"/>
<rect x="113" y="114" width="3" height="3" fill="black"/>
<rect x="132" y="114" width="3" height="3" fill="black"/>
<rect x="151" y="114" width="3" height="3" fill="black"/>
<rect x="170" y="114" width="3" height="3" fill="black"/>
<rect y="133" width="3" height="3" fill="black"/>
<rect x="19" y="133" width="3" height="3" fill="black"/>
<rect x="38" y="133" width="3" height="3" fill="black"/>
<rect x="57" y="133" width="3" height="3" fill="black"/>
<rect x="76" y="133" width="3" height="3" fill="black"/>
<rect x="95" y="133" width="3" height="3" fill="black"/>
<rect x="113" y="133" width="3" height="3" fill="black"/>
<rect x="132" y="133" width="3" height="3" fill="black"/>
<rect x="151" y="133" width="3" height="3" fill="black"/>
<rect x="170" y="133" width="3" height="3" fill="black"/>
<rect y="152" width="3" height="3" fill="black"/>
<rect x="19" y="152" width="3" height="3" fill="black"/>
<rect x="38" y="152" width="3" height="3" fill="black"/>
<rect x="57" y="152" width="3" height="3" fill="black"/>
<rect x="76" y="152" width="3" height="3" fill="black"/>
<rect x="95" y="152" width="3" height="3" fill="black"/>
<rect x="113" y="152" width="3" height="3" fill="black"/>
<rect x="132" y="152" width="3" height="3" fill="black"/>
<rect x="151" y="152" width="3" height="3" fill="black"/>
<rect x="170" y="152" width="3" height="3" fill="black"/>
<rect y="170" width="3" height="3" fill="black"/>
<rect x="19" y="170" width="3" height="3" fill="black"/>
<rect x="38" y="170" width="3" height="3" fill="black"/>
<rect x="57" y="170" width="3" height="3" fill="black"/>
<rect x="76" y="170" width="3" height="3" fill="black"/>
<rect x="95" y="170" width="3" height="3" fill="black"/>
<rect x="113" y="170" width="3" height="3" fill="black"/>
<rect x="132" y="170" width="3" height="3" fill="black"/>
<rect x="151" y="170" width="3" height="3" fill="black"/>
<rect x="170" y="170" width="3" height="3" fill="black"/>
<rect y="189" width="3" height="3" fill="black"/>
<rect x="19" y="189" width="3" height="3" fill="black"/>
<rect x="38" y="189" width="3" height="3" fill="black"/>
<rect x="57" y="189" width="3" height="3" fill="black"/>
<rect x="76" y="189" width="3" height="3" fill="black"/>
<rect x="95" y="189" width="3" height="3" fill="black"/>
<rect x="113" y="189" width="3" height="3" fill="black"/>
<rect x="132" y="189" width="3" height="3" fill="black"/>
<rect x="151" y="189" width="3" height="3" fill="black"/>
<rect x="170" y="189" width="3" height="3" fill="black"/>
</g>
</svg>
